# xmcd CD database file
#
# Track frame offsets:
#	150
#	14669
#	36565
#	53036
#	81193
#	97124
#	112654
#	130164
#	153334
#	166917
#
# Disc length: 2435 seconds
#
# Revision: 0
# Processed by: cddbd v1.5.1PL0 Copyright (c) Steve Scherf et al.
# Submitted via: CDex 1.51
#
DISCID=7a09810a
DTITLE=Doug Jernigan - Jazz by Jernigan
DYEAR=2000
DGENRE=Jazz
TTITLE0=Lime House Blues
TTITLE1=Darn That Dream
TTITLE2=Lullaby of Birdland
TTITLE3=Spring Can Really Hang You Up the Most
TTITLE4=Jordu
TTITLE5=C Side Blues
TTITLE6=Dexterity
TTITLE7=Jetta's Dream
TTITLE8=Doug's Blues
TTITLE9=Four Brothers
EXTD=YEAR: 2000
EXTT0=
EXTT1=
EXTT2=
EXTT3=
EXTT4=
EXTT5=
EXTT6=
EXTT7=
EXTT8=
EXTT9=
PLAYORDER=
